# xmcd
#
# Track frame offsets:
#	182
#	15920
#	40560
#	62540
#	82785
#	106785
#	122842
#	147322
#	161592
#	184695
#	199717
#	222020
#	237532
#	258350
#	273965
#
# Disc length: 3853 seconds
# Revision: 17
# Processed by: cddbd v1.5.2PL0 Copyright (c) Steve Scherf et al.
# Submitted via: dBpowerAMP V12.0
#
DISCID=bd0f0b0f
DTITLE=B.B. King - Blues on the Bayou
DYEAR=1998
DGENRE=Blues
TTITLE0=Blues Boys Tune
TTITLE1=Bad Case of Love
TTITLE2=I'll Survive
TTITLE3=Mean Ole' World
TTITLE4=Blues Man
TTITLE5=Broken Promise
TTITLE6=Darlin' What Happened
TTITLE7=Shake It Up and Go
TTITLE8=Blues We Like
TTITLE9=Good Man Gone Bad
TTITLE10=If I Lost You
TTITLE11=Tell Me Baby
TTITLE12=I Got Some Outside Help I Don't Need
TTITLE13=Blues In "G"
TTITLE14=If That Ain't It I Quit
EXTD=
EXTT0=
EXTT1=
EXTT2=
EXTT3=
EXTT4=
EXTT5=
EXTT6=
EXTT7=
EXTT8=
EXTT9=
EXTT10=
EXTT11=
EXTT12=
EXTT13=
EXTT14=
PLAYORDER=
